<svg xmlns="http://www.w3.org/2000/svg" width="11.612" height="11.612" viewBox="0 0 11.612 11.612"><defs><style>.a{fill:#227093;}</style></defs><path class="a" d="M9.777,0H1.835A1.837,1.837,0,0,0,0,1.835V9.777a1.837,1.837,0,0,0,1.835,1.835H9.777a1.837,1.837,0,0,0,1.835-1.835V1.835A1.837,1.837,0,0,0,9.777,0Zm.612,9.777a.612.612,0,0,1-.612.612H1.835a.612.612,0,0,1-.612-.612V1.835a.612.612,0,0,1,.612-.612H9.777a.612.612,0,0,1,.612.612V9.777Z" transform="translate(0 0)"/><path class="a" d="M92.524,106.585A.734.734,0,0,0,92,106.8l-2.733,2.737-.728-.728a.738.738,0,0,0-1.044,1.044l1.251,1.251a.738.738,0,0,0,1.044,0l3.255-3.259a.738.738,0,0,0-.522-1.26Z" transform="translate(-84.465 -103.147)"/></svg>