<svg xmlns="http://www.w3.org/2000/svg" width="9.56" height="12.535" viewBox="0 0 9.56 12.535"><defs><style>.a{fill:#747474;}</style></defs><path class="a" d="M73.692,1.14a.642.642,0,0,1,.665-.647h2.735a.642.642,0,0,1,.665.647v.708h.493V1.14A1.135,1.135,0,0,0,77.092,0H74.357A1.135,1.135,0,0,0,73.2,1.14v.708h.493Zm0,0" transform="translate(-70.945)"/><path class="a" d="M29.2,132.716h5.827a1.049,1.049,0,0,0,1-1.109V124H28.2v7.607a1.049,1.049,0,0,0,1,1.109Zm4.484-7.539a.246.246,0,0,1,.493,0V131a.246.246,0,1,1-.493,0Zm-1.817,0a.246.246,0,0,1,.493,0V131a.246.246,0,1,1-.493,0Zm-1.817,0a.246.246,0,0,1,.493,0V131a.246.246,0,1,1-.493,0Zm0,0" transform="translate(-27.331 -120.181)"/><path class="a" d="M.616,69.232H8.944a.616.616,0,0,0,0-1.232H.616a.616.616,0,0,0,0,1.232Zm0,0" transform="translate(0 -65.906)"/></svg>