<svg xmlns="http://www.w3.org/2000/svg" width="4.708" height="6.173" viewBox="0 0 4.708 6.173"><defs><style>.a{fill:#fff;}</style></defs><path class="a" d="M73.442.561a.316.316,0,0,1,.328-.319h1.347a.316.316,0,0,1,.328.319V.91h.243V.561A.559.559,0,0,0,75.116,0H73.769a.559.559,0,0,0-.57.561V.91h.243Zm0,0" transform="translate(-72.089)"/><path class="a" d="M28.69,128.292h2.87a.517.517,0,0,0,.491-.546V124H28.2v3.746a.517.517,0,0,0,.491.546Zm2.208-3.713a.121.121,0,0,1,.243,0v2.867a.121.121,0,1,1-.243,0Zm-.895,0a.121.121,0,0,1,.243,0v2.867a.121.121,0,1,1-.243,0Zm-.895,0a.121.121,0,0,1,.243,0v2.867a.121.121,0,1,1-.243,0Zm0,0" transform="translate(-27.771 -122.119)"/><path class="a" d="M.3,68.607H4.4A.3.3,0,1,0,4.4,68H.3a.3.3,0,1,0,0,.607Zm0,0" transform="translate(0 -66.969)"/></svg>