<svg xmlns="http://www.w3.org/2000/svg" width="12.124" height="12.156" viewBox="0 0 12.124 12.156"><defs><style>.a{fill:#227093;}</style></defs><g transform="translate(1.725 1.71)"><g transform="translate(0 0)"><rect class="a" width="8.058" height="4.257" transform="translate(0 5.698) rotate(-45)"/></g></g><g transform="translate(7.969 0)"><path class="a" d="M263.254,2.423,261.031.168a.548.548,0,0,0-.773-.016l-.016.016-.978.978,3.012,3.028.978-.978A.533.533,0,0,0,263.254,2.423Z" transform="translate(-259.265 0)"/></g><g transform="translate(0 8.068)"><path class="a" d="M1.8,261.954.55,265.3a.547.547,0,0,0,.315.71.565.565,0,0,0,.394,0L4.6,264.745Z" transform="translate(-0.513 -261.954)"/></g></svg>