<svg xmlns="http://www.w3.org/2000/svg" width="5.971" height="5.986" viewBox="0 0 5.971 5.986"><defs><style>.a{fill:#fff;}</style></defs><g transform="translate(0.849 0.842)"><g transform="translate(0 0)"><rect class="a" width="3.968" height="2.097" transform="translate(0 2.806) rotate(-45)"/></g></g><g transform="translate(3.924 0)"><path class="a" d="M261.23,1.193,260.135.083a.27.27,0,0,0-.381-.008l-.008.008-.481.481,1.483,1.491.481-.481A.263.263,0,0,0,261.23,1.193Z" transform="translate(-259.265 0)"/></g><g transform="translate(0 3.973)"><path class="a" d="M1.144,261.954.531,263.6a.27.27,0,0,0,.155.349.279.279,0,0,0,.194,0l1.646-.621Z" transform="translate(-0.513 -261.954)"/></g></svg>