<svg xmlns="http://www.w3.org/2000/svg" width="54.667" height="54.667" viewBox="0 0 54.667 54.667"><defs><style>.a{fill:#f4991a;}</style></defs><path class="a" d="M27.333,0A27.333,27.333,0,1,0,54.667,27.333,27.318,27.318,0,0,0,27.333,0Zm0,50.4A23.062,23.062,0,1,1,50.4,27.333,23.049,23.049,0,0,1,27.333,50.4Z"/><g transform="translate(25.198 13.76)"><path class="a" d="M238.135,128.877A2.135,2.135,0,0,0,236,131.012v13.751a2.135,2.135,0,1,0,4.271,0V131.012A2.135,2.135,0,0,0,238.135,128.877Z" transform="translate(-236 -128.877)"/></g><g transform="translate(24.451 34.397)"><circle class="a" cx="2.883" cy="2.883" r="2.883"/></g></svg>