<svg xmlns="http://www.w3.org/2000/svg" width="11.153" height="12.441" viewBox="0 0 11.153 12.441"><defs><style>.a{fill:#f4991a;}</style></defs><path class="a" d="M4.568,11.955a.486.486,0,0,1-.486.486H1.944A1.946,1.946,0,0,1,0,10.5V1.944A1.946,1.946,0,0,1,1.944,0H7.918A1.946,1.946,0,0,1,9.862,1.944V6.585a.486.486,0,1,1-.972,0V1.944A.973.973,0,0,0,7.918.972H1.944a.973.973,0,0,0-.972.972V10.5a.973.973,0,0,0,.972.972H4.082a.486.486,0,0,1,.486.486ZM7.433,2.916H2.427a.486.486,0,0,0,0,.972H7.433a.486.486,0,0,0,0-.972Zm.486,2.43a.486.486,0,0,0-.486-.486H2.427a.486.486,0,0,0,0,.972H7.433A.486.486,0,0,0,7.918,5.346ZM2.427,6.8a.486.486,0,0,0,0,.972H4.981a.486.486,0,0,0,0-.972Zm8.637,3.56c-.017.024-.076.107-.112.153a6.839,6.839,0,0,1-1.074,1.107,3.333,3.333,0,0,1-2.079.817,3.333,3.333,0,0,1-2.079-.817,6.837,6.837,0,0,1-1.074-1.107c-.036-.046-.1-.129-.112-.153a.486.486,0,0,1,0-.559c.017-.024.076-.107.112-.153A6.837,6.837,0,0,1,5.721,8.544,3.333,3.333,0,0,1,7.8,7.727a3.333,3.333,0,0,1,2.079.817,6.836,6.836,0,0,1,1.074,1.107c.036.046.1.129.112.153A.486.486,0,0,1,11.064,10.363Zm-1.014-.279A3.159,3.159,0,0,0,7.8,8.7a3.158,3.158,0,0,0-2.251,1.385A3.159,3.159,0,0,0,7.8,11.469,3.158,3.158,0,0,0,10.051,10.084ZM7.824,9.16a.923.923,0,1,0,.923.923A.923.923,0,0,0,7.824,9.16Zm0,0"/></svg>