<svg xmlns="http://www.w3.org/2000/svg" width="5.492" height="6.127" viewBox="0 0 5.492 6.127"><defs><style>.a{fill:#fff;}</style></defs><path class="a" d="M2.25,5.887a.239.239,0,0,1-.239.239H.957A.958.958,0,0,1,0,5.169V.957A.958.958,0,0,1,.957,0H3.9a.958.958,0,0,1,.957.957V3.243a.239.239,0,1,1-.479,0V.957A.479.479,0,0,0,3.9.479H.957A.479.479,0,0,0,.479.957V5.169a.479.479,0,0,0,.479.479H2.01a.239.239,0,0,1,.239.239ZM3.66,1.436H1.2a.239.239,0,0,0,0,.479H3.66a.239.239,0,0,0,0-.479Zm.239,1.2a.239.239,0,0,0-.239-.239H1.2a.239.239,0,0,0,0,.479H3.66A.239.239,0,0,0,3.9,2.632ZM1.2,3.35a.239.239,0,0,0,0,.479H2.453a.239.239,0,1,0,0-.479ZM5.449,5.1c-.008.012-.037.053-.055.075a3.368,3.368,0,0,1-.529.545,1.641,1.641,0,0,1-1.024.4,1.641,1.641,0,0,1-1.024-.4,3.367,3.367,0,0,1-.529-.545c-.018-.023-.047-.063-.055-.075a.239.239,0,0,1,0-.275c.008-.012.037-.053.055-.075a3.367,3.367,0,0,1,.529-.545,1.641,1.641,0,0,1,1.024-.4,1.641,1.641,0,0,1,1.024.4,3.367,3.367,0,0,1,.529.545c.018.023.047.063.055.075A.239.239,0,0,1,5.449,5.1Zm-.5-.138a1.555,1.555,0,0,0-1.109-.682,1.555,1.555,0,0,0-1.109.682,1.555,1.555,0,0,0,1.109.682A1.555,1.555,0,0,0,4.95,4.966Zm-1.1-.455a.455.455,0,1,0,.455.455A.455.455,0,0,0,3.853,4.511Zm0,0"/></svg>